<svg xmlns="http://www.w3.org/2000/svg" width="151.014" height="151.014"  xmlns:v="https://vecta.io/nano"><defs><clipPath id="A"><path d="M50.307 108.425a54.249 54.249 0 1 1 4.038.149q-2.007-.001-4.038-.149z" fill="none"/></clipPath></defs><g fill="#161b4b"><circle cx="75.506" cy="75.507" r="65.125" stroke="#161b4b"/><circle cx="75.506" cy="75.507" r="74.999"/></g><g transform="translate(20.77 21.729)" clip-path="url(#A)"><g fill="#fff"><ellipse cx="53.498" cy="107.033" rx="33.705" ry="26.847"/><path d="M102.978 25.671c-3.183-2.114-7.779-2.044-10.329.373-5.939 5.629-12.026 22.4-19.028 26.632-8.48 5.128-30.684 4.241-39.64 0-7.1-3.361-14.009-19.111-19.9-24.3-2.631-2.314-7.176-2.347-10.332-.171-5.357 3.691-1.72 11.961 3.511 16.121 4.171 3.317 6.013 24.6 16.482 39.6-1.621 7.237-2.723 14.123-2.6 19.827l66.068 3.275c.322-6.638-.711-18.209-2.475-26.848 9.914-14.9 11.734-35.316 15.54-38.8 6.378-5.829 8.103-12.123 2.703-15.709z"/><path d="M28.349 164.081c-13.06-9.2-14.19-26.327-12.839-39.073a112.3 112.3 0 0 1 4.756-22l23.54 8.05.007-.019c-4.144 12.255-12.733 39.706-1.84 53.042zm43.389 0c-13.06-9.2-14.191-26.327-12.839-39.073.844-7.474 2.437-14.845 4.756-22l23.54 8.05-3.482-1.206c1.922.653 2.964 2.729 2.338 4.661-4.325 13.391-10.647 37.377-.689 49.568z"/></g><ellipse cx="53.935" cy="97.688" rx="20.395" ry="28.718" fill="#dde8c2"/><path d="M57.331 95.429h9.218a2.52 2.52 0 0 0 2.5-2.893c-1.691-10.667 3.148-21.335 1.115-32-.223-1.201-1.269-2.074-2.491-2.078h-9.218a2.52 2.52 0 0 0-2.5 2.893c1.691 10.667-3.147 21.335-1.115 32 .223 1.201 1.269 2.074 2.491 2.078z" fill="#40615e"/><path d="M75.293 64.765a112.2 112.2 0 0 1-42.381 0c-2.791-.536-4.56-2.994-3.975-5.341l1.414-5.889a4.6 4.6 0 0 1 5.36-3.324 97.36 97.36 0 0 0 36.782 0 4.6 4.6 0 0 1 5.36 3.324q.708 2.944 1.414 5.889c.585 2.347-1.183 4.806-3.974 5.341z" fill="#90a595"/><path d="M75.403 24.238c1.978-1.784 2.884-3.143 3.094-4.177.747-3.685-7.348-3.253-7.348-3.253l.271.12q-.407-.181-.81-.352a43.47 43.47 0 0 0-16.405-3.842h-.024a43.37 43.37 0 0 0-16.382 3.84q-.4.172-.81.352l.271-.12s-8.1-.433-7.348 3.253c.209 1.035 1.116 2.393 3.095 4.177 0 0-15.4 31.861 17.784 33.256h6.828c33.179-1.394 17.784-33.254 17.784-33.254z" fill="#fff"/><g fill="#dde8c2"><circle cx="43.814" cy="31.968" r="7.723"/><circle cx="62.965" cy="31.968" r="7.723"/><path d="M33.524 22.52s-3.849-4.651 1.991-3.488zm42.062 0s3.849-4.651-1.991-3.488zM57.12 31.195s-1.425-3.04-3.468-3.04-3.468 3.04-3.468 3.04-3.982 5.952-4.471 8.245c-1.989 9.348 6 12.743 7.938 12.743s9.928-3.395 7.938-12.743c-.487-2.293-4.469-8.245-4.469-8.245z"/></g><path d="M61.415 38.907c-.875-2.566-4.318-7.712-4.318-7.712s-1.425-3.04-3.468-3.04-3.468 3.04-3.468 3.04-3.982 5.952-4.47 8.245l-.044.219a14.12 14.12 0 0 1 8.448-2.687 14.4 14.4 0 0 1 7.32 1.935z" fill="#849976"/><path d="M48.37 41.456c.741 1.121 4.428 2.771 5.418 2.713 1.019-.06 4.793-2.178 5.3-3.321 1.926-4.345-13.426-3.486-10.718.608z" fill="#0e2924"/><path fill="#070808" d="M53.651 41.066v11.117"/><g fill="#0e2924"><path d="M53.367 41.066h.568v11.117h-.568z"/><circle cx="43.848" cy="28.482" r="1.551"/><circle cx="62.966" cy="28.482" r="1.551"/></g><g fill="#40615f"><circle cx="57.29" cy="101.249" r="2.116"/><circle cx="62.502" cy="101.249" r="2.116"/><circle cx="67.426" cy="101.207" r="2.116"/></g><g fill="none" stroke="#40615f" stroke-miterlimit="10" stroke-width=".441"><path d="M57.29 94.431a10.02 10.02 0 0 0 .221 6.818m5.122-6.969a10.03 10.03 0 0 0 .22 6.818m4.172-7.497c-.474 2.295-.129 4.684.975 6.751"/></g></g><g fill="none"><circle cx="54.284" cy="54.284" r="54.284" transform="matrix(.037 -.999 .999 .037 18.742 127.332)" stroke="#161b4b" stroke-width="17.79"/><circle cx="64.078" cy="64.078" r="64.078" transform="matrix(.037 -.999 .999 .037 9.121 137.191)" stroke="#fff" stroke-width="6"/></g><path d="M78.258.558C36.865-.961 2.078 31.364.559 72.758s30.806 76.181 72.199 77.699 76.181-30.806 77.7-72.199a75 75 0 0 0-72.2-77.7zm-5.029 141.836c-36.936-1.356-65.78-32.399-64.424-69.335S41.203 7.278 78.14 8.634s65.781 32.397 64.425 69.334c-1.396 36.919-32.414 65.741-69.336 64.426z" fill="#161b4b" stroke="#161b4b" stroke-miterlimit="10"/><path d="M41.89 34.075l1.523-1.2a1.01 1.01 0 0 1 .66-.247.75.75 0 0 1 .588.315c.15.175.21.41.163.636a1 1 0 0 1-.384.588l-2.071 1.646a1.19 1.19 0 0 1-.868.3 1.13 1.13 0 0 1-.776-.472l-3.722-4.686c-.172-.203-.263-.461-.255-.727.023-.26.152-.499.356-.662a.95.95 0 0 1 .725-.198 1.09 1.09 0 0 1 .648.415zm7.354-4.797l-2.707 1.6.186.7q.267.952-.231 1.248c-.21.13-.453.2-.7.2-.231.002-.449-.102-.592-.283a1.75 1.75 0 0 1-.232-.536l-1.15-6.259a1.63 1.63 0 0 1 .078-.919 1.41 1.41 0 0 1 1.461-.873 1.61 1.61 0 0 1 .848.371l4.954 3.994a1.77 1.77 0 0 1 .361.46.71.71 0 0 1-.025.648 1.33 1.33 0 0 1-.519.532.63.63 0 0 1-.527.048 1.33 1.33 0 0 1-.527-.3zm-1.33-1.13l-2.423-2.123.711 3.143zm6.95-4.7a2.75 2.75 0 0 1 1.148.069 1.86 1.86 0 0 1 1.178 1.1 2.46 2.46 0 0 1 .181 1.285 2.33 2.33 0 0 1-.493 1.166 2.59 2.59 0 0 1-1.056.787l-2.281.949c-.278.137-.599.156-.891.054-.281-.123-.499-.358-.6-.648l-2.235-5.35c-.133-.274-.147-.591-.038-.876a1.14 1.14 0 0 1 .662-.6l1.723-.72a2.6 2.6 0 0 1 1.764-.188 1.92 1.92 0 0 1 .708.395 1.7 1.7 0 0 1 .469.641 1.95 1.95 0 0 1 .178 1.007c-.059.34-.203.659-.417.929zm-2.56.479l.873-.365a.79.79 0 0 0 .442-.42.74.74 0 0 0 0-.6c-.072-.189-.24-.324-.439-.356a1.1 1.1 0 0 0-.639.076l-.793.331zm1.3 3.115l1.2-.5a.99.99 0 0 0 .619-.56.9.9 0 0 0-.066-.664q-.361-.739-1.27-.36l-1.155.484zm9.675-3.142l-3.045.793-.015.726c-.007.659-.2 1.036-.57 1.134a1.32 1.32 0 0 1-.73-.006.74.74 0 0 1-.489-.436 1.73 1.73 0 0 1-.075-.579l.636-6.332a1.65 1.65 0 0 1 .333-.863c.187-.245.451-.418.75-.491a1.36 1.36 0 0 1 .9.059 1.62 1.62 0 0 1 .711.593l3.647 5.215a1.82 1.82 0 0 1 .219.542.71.71 0 0 1-.2.616c-.177.181-.401.308-.647.366a.63.63 0 0 1-.52-.1c-.172-.111-.316-.261-.42-.438zm-.962-1.456l-1.738-2.714-.192 3.217zm5.438-2.745l.4 3.946a1.09 1.09 0 0 1-.171.751c-.151.216-.393.349-.656.363a.87.87 0 0 1-.718-.224 1.08 1.08 0 0 1-.328-.7l-.642-6.273a.95.95 0 0 1 .188-.7.87.87 0 0 1 .632-.34c.311-.031.618.09.824.326l4.065 4.081-.393-3.838a1.09 1.09 0 0 1 .176-.751c.153-.217.397-.351.662-.365a.85.85 0 0 1 .71.222 1.09 1.09 0 0 1 .325.7l.631 6.166a1.12 1.12 0 0 1-.165.806.92.92 0 0 1-1.379.067zm12.748 4.361a4.6 4.6 0 0 1-2.02.341 4.46 4.46 0 0 1-1.487-.356 3.8 3.8 0 0 1-1.233-.834 4.31 4.31 0 0 1-1.107-3.466 4.21 4.21 0 0 1 .212-1.065c.117-.348.279-.679.48-.986a3.9 3.9 0 0 1 .727-.82 3.7 3.7 0 0 1 1.353-.724c.511-.152 1.044-.211 1.576-.175a4.26 4.26 0 0 1 1.515.383 3.76 3.76 0 0 1 1.238.907 3.92 3.92 0 0 1 .8 1.4 4.23 4.23 0 0 1 .212 1.618c-.019.336-.062.67-.13 1a4.13 4.13 0 0 1-.286.867c-.14.3-.31.585-.508.851l.6.57c.235.228.35.552.311.877-.051.195-.17.365-.335.48-.159.123-.357.185-.558.172a.92.92 0 0 1-.172-.034 1.34 1.34 0 0 1-.448-.294zm-1.368-1.378l-.3-.312a.79.79 0 0 1-.206-.63.84.84 0 0 1 .3-.518.76.76 0 0 1 .558-.2 1.07 1.07 0 0 1 .657.346l.254.259a3.83 3.83 0 0 0 .368-1.5 2.87 2.87 0 0 0-.167-1.171 2.12 2.12 0 0 0-.649-.936 1.81 1.81 0 0 0-1.067-.408 1.86 1.86 0 0 0-1.136.265c-.33.205-.597.496-.772.842a2.85 2.85 0 0 0-.319 1.158 3.44 3.44 0 0 0 .33 1.919 1.84 1.84 0 0 0 1.589.958c.19.014.381-.011.561-.072zm13.115-3.361l-.814 3.512a5.8 5.8 0 0 1-.427 1.269 2.66 2.66 0 0 1-.757.906 3.47 3.47 0 0 1-1.472.673 3.84 3.84 0 0 1-1.649-.02 3.98 3.98 0 0 1-1.277-.539 3.64 3.64 0 0 1-.968-.912 3.09 3.09 0 0 1-.508-2.529l.919-3.971a1.08 1.08 0 0 1 .412-.653c.215-.155.489-.204.744-.131a.85.85 0 0 1 .6.442 1.1 1.1 0 0 1 .078.766l-.86 3.713a1.86 1.86 0 0 0 .1 1.3c.112.212.274.394.472.53.198.142.422.244.66.3a1.79 1.79 0 0 0 .762.008c.248-.047.48-.157.674-.319.351-.336.582-.778.658-1.258l.814-3.513c.051-.261.197-.493.409-.653a.95.95 0 0 1 .737-.134.94.94 0 0 1 .603.444 1.08 1.08 0 0 1 .09.769zm-.162 6.557l2.1-5.871c.082-.252.253-.466.482-.6s.508-.146.753-.045a.85.85 0 0 1 .549.51 1.09 1.09 0 0 1-.011.77l-2.1 5.87a1.1 1.1 0 0 1-.478.6.85.85 0 0 1-.748.045.87.87 0 0 1-.552-.512c-.093-.248-.091-.521.005-.767zm3.125 1.27a.93.93 0 0 1 .542-.518.98.98 0 0 1 .767.008.95.95 0 0 1 .4.313c.103.139.176.301.2.473a.93.93 0 0 1-.061.5.95.95 0 0 1-.54.528.96.96 0 0 1-.763 0 .98.98 0 0 1-.543-.545.94.94 0 0 1-.002-.759zm5.358-3.055a2.3 2.3 0 0 1 1.01-1 2.67 2.67 0 0 1 1.4-.267 3.49 3.49 0 0 1 1.435.417c.293.16.571.347.829.558a2.53 2.53 0 0 1 .64.744.78.78 0 0 1 .02.787.92.92 0 0 1-.518.45.8.8 0 0 1-.67-.06.95.95 0 0 1-.23-.168l-.247-.269a2.58 2.58 0 0 0-.675-.54 1.22 1.22 0 0 0-.648-.151.54.54 0 0 0-.489.292q-.234.435.346.968l.382.356a5.28 5.28 0 0 1 1.258 1.644c.237.553.191 1.187-.124 1.7a2.7 2.7 0 0 1-1.548 1.4 2.45 2.45 0 0 1-1.23.078 4.23 4.23 0 0 1-1.258-.442 5.01 5.01 0 0 1-1.7-1.394 1.33 1.33 0 0 1-.258-.592c-.035-.206.001-.417.1-.6a.81.81 0 0 1 .487-.39.76.76 0 0 1 .62.044 1.26 1.26 0 0 1 .384.3l.461.52a2.56 2.56 0 0 0 .726.6 1.22 1.22 0 0 0 .738.144c.243-.023.458-.169.567-.388.125-.203.128-.458.008-.664a2.26 2.26 0 0 0-.322-.44l-.608-.609a6.66 6.66 0 0 1-.852-.97 1.87 1.87 0 0 1-.329-.934 2.07 2.07 0 0 1 .295-1.124zm8.571 4.212l-.88 1.252 1.438 1.01a1.03 1.03 0 0 1 .418.564.75.75 0 0 1-.13.656.73.73 0 0 1-.567.331c-.24.015-.478-.056-.671-.2l-1.438-1.01-.9 1.274 1.591 1.117c.203.132.353.332.423.564a.75.75 0 0 1-.138.653.74.74 0 0 1-.563.336 1 1 0 0 1-.672-.2l-2.2-1.542c-.264-.162-.452-.424-.521-.726a1.1 1.1 0 0 1 .231-.849l3.334-4.744a1.1 1.1 0 0 1 .72-.5 1.14 1.14 0 0 1 .861.24l2.195 1.542a1.01 1.01 0 0 1 .422.567c.058.227.007.468-.137.652a.73.73 0 0 1-.561.334 1.01 1.01 0 0 1-.673-.2zm-77.531 78.361l-3.823 1.954c-.24.123-.517.155-.778.088a1.19 1.19 0 0 1-.653-.482c-.158-.195-.197-.462-.1-.694.131-.285.339-.527.6-.7l5.827-2.932a1.31 1.31 0 0 1 .87-.15c.317.076.596.263.786.528a1.6 1.6 0 0 1 .315.785 1.06 1.06 0 0 1-.216.759l-2.683 3.776 4.195-1.4a1.58 1.58 0 0 1 .876-.029 1.21 1.21 0 0 1 .7.473 1.49 1.49 0 0 1 .3.874 1.08 1.08 0 0 1-.319.811l-4.564 4.779q-1.015.743-1.493.088a1.12 1.12 0 0 1-.283-.975c.105-.263.272-.496.487-.68l2.846-2.922-3.962 1.374a4.7 4.7 0 0 1-.657.193.93.93 0 0 1-.5-.044 1.08 1.08 0 0 1-.475-.4c-.165-.2-.249-.456-.233-.715a1.59 1.59 0 0 1 .325-.743zm12.626 10.128l-2.588 2.826c-.315.356-.671.676-1.059.951a2.85 2.85 0 0 1-1.173.443c-.575.086-1.162.036-1.714-.147a4.05 4.05 0 0 1-1.514-.879 4.22 4.22 0 0 1-.9-1.166 3.83 3.83 0 0 1-.42-1.35c-.052-.462-.007-.93.134-1.374.145-.458.39-.878.718-1.229l2.924-3.195a1.15 1.15 0 0 1 .723-.389c.28-.031.559.068.757.268a.9.9 0 0 1 .324.723c-.015.282-.131.549-.328.751l-2.735 2.986a1.98 1.98 0 0 0-.581 1.254 1.6 1.6 0 0 0 .159.738 1.99 1.99 0 0 0 .454.624 1.87 1.87 0 0 0 .7.4c.254.086.525.105.789.057a2.35 2.35 0 0 0 1.267-.82l2.588-2.825a1.15 1.15 0 0 1 .721-.39.9.9 0 0 1 .749.26.91.91 0 0 1 .328.727c-.008.28-.125.553-.323.756zm-.982 3.044a4.46 4.46 0 0 1 1.176-1.235c.446-.316.952-.537 1.487-.648a4.01 4.01 0 0 1 1.637.006 4.71 4.71 0 0 1 1.619.682 5.49 5.49 0 0 1 .866.714c.273.263.493.578.646.925a.89.89 0 0 1-.048.886 1.06 1.06 0 0 1-.528.444c-.214.072-.449.035-.63-.1a2.47 2.47 0 0 1-.522-.567c-.196-.29-.446-.541-.735-.738a2.13 2.13 0 0 0-1.24-.39c-.407.014-.802.148-1.134.384-.37.263-.684.596-.925.98a2.79 2.79 0 0 0-.548 2.211 2.1 2.1 0 0 0 .946 1.256c.221.156.472.267.736.326l.641.1c.133.023.262.069.379.137.209.123.35.335.381.575a.99.99 0 0 1-.161.668c-.23.322-.622.488-1.013.427a4.15 4.15 0 0 1-2.051-.752 4.51 4.51 0 0 1-1.171-1.1c-.318-.422-.547-.905-.674-1.418-.263-1.324.052-2.697.866-3.773zm11.865 7.689l-3.4-1.476-1.01 2.327c-.104.262-.299.477-.55.606a.89.89 0 0 1-.8 0 .92.92 0 0 1-.549-.58c-.082-.271-.06-.562.06-.818l2.637-6.077a1.15 1.15 0 0 1 .553-.6.92.92 0 0 1 .8 0c.261.099.462.312.545.579a1.16 1.16 0 0 1-.064.815l-.93 2.14 3.4 1.477.928-2.141a1.15 1.15 0 0 1 .554-.6.9.9 0 0 1 .792 0c.262.1.464.313.55.58a1.14 1.14 0 0 1-.06.819l-2.637 6.076a1.15 1.15 0 0 1-.555.607.92.92 0 0 1-.8-.01.9.9 0 0 1-.543-.578 1.16 1.16 0 0 1 .065-.815zm8.183 4.374l-3.25-.781-.378.672c-.335.614-.7.873-1.1.778a1.4 1.4 0 0 1-.681-.371.79.79 0 0 1-.241-.655 1.91 1.91 0 0 1 .222-.58l3.765-5.615a1.75 1.75 0 0 1 .743-.643c.615-.267 1.332-.096 1.76.42a1.73 1.73 0 0 1 .37.913l.806 6.712a1.89 1.89 0 0 1-.066.619.76.76 0 0 1-.5.474c-.256.081-.53.088-.79.02a.67.67 0 0 1-.436-.356 1.42 1.42 0 0 1-.176-.621zm-.173-1.846l-.27-3.413-1.79 2.919zm4.115-1.855c.033-.514.227-1.004.556-1.4s.76-.688 1.245-.856a3.73 3.73 0 0 1 1.576-.2c.353.032.702.096 1.043.191.341.087.661.24.942.451.247.169.382.459.354.757-.014.252-.127.489-.313.659s-.43.255-.678.228c-.103-.006-.204-.028-.3-.065l-.356-.158c-.28-.129-.58-.209-.887-.238a1.3 1.3 0 0 0-.694.128c-.201.084-.338.275-.352.493q-.042.523.749.795l.522.185a5.61 5.61 0 0 1 1.925 1.065 1.96 1.96 0 0 1 .6 1.71 2.86 2.86 0 0 1-.91 2.022 2.61 2.61 0 0 1-1.164.6 4.5 4.5 0 0 1-1.412.1 5.33 5.33 0 0 1-2.245-.634 1.41 1.41 0 0 1-.5-.467.99.99 0 0 1-.154-.628.86.86 0 0 1 .306-.587.81.81 0 0 1 .625-.223 1.34 1.34 0 0 1 .5.133l.668.308a2.76 2.76 0 0 0 .962.274 1.29 1.29 0 0 0 .778-.174.75.75 0 0 0 .387-.619.69.69 0 0 0-.274-.65c-.154-.117-.322-.214-.5-.29q-.248-.1-.85-.335a7.13 7.13 0 0 1-1.243-.58 1.98 1.98 0 0 1-.717-.77 2.19 2.19 0 0 1-.189-1.225zm17.31 2.221l-1.149.173a1.09 1.09 0 0 1-.736-.126.77.77 0 0 1-.378-.586.78.78 0 0 1 .186-.675 1.08 1.08 0 0 1 .669-.336l2.117-.317a.99.99 0 0 1 .867.186 1.51 1.51 0 0 1 .377.882 3.98 3.98 0 0 1-.7 3.008 3.81 3.81 0 0 1-2.66 1.565 4.61 4.61 0 0 1-1.812-.079 4 4 0 0 1-1.583-.787 4.63 4.63 0 0 1-1.561-3 4.44 4.44 0 0 1 .24-2.273 4.25 4.25 0 0 1 1.326-1.823 4.34 4.34 0 0 1 2.124-.912 4.77 4.77 0 0 1 2.52.244q.894.368 1.028.934c.042.245-.015.496-.157.7a.82.82 0 0 1-.57.368 1.42 1.42 0 0 1-.734-.138l-.552-.24a2.23 2.23 0 0 0-1.263-.134 2.01 2.01 0 0 0-1.175.571c-.303.309-.514.696-.61 1.118a3.48 3.48 0 0 0-.056 1.36 3.57 3.57 0 0 0 .445 1.282 2.3 2.3 0 0 0 .9.879 2 2 0 0 0 1.285.194c.565-.046 1.071-.369 1.351-.862a2.75 2.75 0 0 0 .261-1.176zm5.84.135l1.978-.59c.244-.084.511-.078.751.017a.8.8 0 0 1 .453.544c.079.232.046.487-.09.691a1.06 1.06 0 0 1-.611.428l-2.695.805c-.318.115-.669.098-.974-.047a1.2 1.2 0 0 1-.579-.771l-1.818-6.089c-.09-.268-.077-.559.035-.818a1.01 1.01 0 0 1 .613-.511c.266-.079.552-.046.793.091a1.16 1.16 0 0 1 .475.666zm9.274-3.495l-3.034 1.4.12.761q.175 1.035-.384 1.292a1.39 1.39 0 0 1-.764.132c-.244-.023-.464-.158-.595-.365a1.89 1.89 0 0 1-.186-.592l-.527-6.741a1.75 1.75 0 0 1 .186-.964 1.43 1.43 0 0 1 .693-.655 1.44 1.44 0 0 1 .947-.107c.326.076.624.245.856.486l4.794 4.767a1.89 1.89 0 0 1 .33.525c.079.23.042.485-.1.683a1.43 1.43 0 0 1-.608.5.67.67 0 0 1-.563-.008c-.201-.084-.38-.214-.523-.379zm-1.281-1.34l-2.328-2.511.4 3.4zm2.818-2.674a4.48 4.48 0 0 1-.665-1.571 3.97 3.97 0 0 1 0-1.622 4.03 4.03 0 0 1 .658-1.5 4.74 4.74 0 0 1 1.272-1.215 5.44 5.44 0 0 1 1-.509 2.93 2.93 0 0 1 1.106-.224.9.9 0 0 1 .794.4c.139.192.209.424.2.661a.69.69 0 0 1-.34.54 2.49 2.49 0 0 1-.728.254c-.344.064-.674.193-.97.38a2.14 2.14 0 0 0-.851.982 2.08 2.08 0 0 0-.1 1.193c.093.444.273.865.529 1.24a2.78 2.78 0 0 0 1.811 1.382 2.37 2.37 0 0 0 2.121-.913l.344-.549a1.11 1.11 0 0 1 .277-.292.78.78 0 0 1 .679-.12.98.98 0 0 1 .549.413 1.05 1.05 0 0 1-.012 1.1 4.16 4.16 0 0 1-1.506 1.582 4.51 4.51 0 0 1-1.475.637 3.95 3.95 0 0 1-1.568.053 4.73 4.73 0 0 1-3.125-2.302zm9.061-1.998l-4.228-5.1a1.16 1.16 0 0 1-.288-.767.92.92 0 0 1 .368-.712.9.9 0 0 1 .763-.224c.278.052.527.203.7.426l4.228 5.1c.187.211.29.483.292.765a.91.91 0 0 1-.364.708.92.92 0 0 1-.766.226 1.14 1.14 0 0 1-.705-.422zm6.203-6.716l-2.324 2.409.388.667q.537.9.11 1.344a1.4 1.4 0 0 1-.665.4c-.235.067-.489.021-.685-.125a1.86 1.86 0 0 1-.389-.484l-2.93-6.093a1.76 1.76 0 0 1-.177-.966 1.5 1.5 0 0 1 1.253-1.3 1.72 1.72 0 0 1 .974.144l6.2 2.707a1.92 1.92 0 0 1 .5.371c.157.185.216.435.157.671a1.42 1.42 0 0 1-.384.691c-.138.14-.331.214-.527.2-.218-.005-.432-.061-.625-.164zm-1.68-.786l-3.077-1.5 1.608 3.022zm.493-4.479a2.44 2.44 0 0 1-.917-1.2 2.83 2.83 0 0 1-.092-1.508 3.73 3.73 0 0 1 .636-1.457 5.84 5.84 0 0 1 .7-.795 2.7 2.7 0 0 1 .873-.575.83.83 0 0 1 .831.086c.207.143.35.361.4.608a.85.85 0 0 1-.155.7.96.96 0 0 1-.207.22l-.318.223a2.76 2.76 0 0 0-.662.637c-.142.194-.227.423-.247.662-.032.216.061.431.24.555q.427.306 1.067-.232l.427-.353a5.63 5.63 0 0 1 1.9-1.1c.616-.176 1.279-.04 1.777.363a2.87 2.87 0 0 1 1.264 1.823 2.62 2.62 0 0 1-.087 1.307 4.48 4.48 0 0 1-.638 1.264c-.441.653-1.022 1.199-1.7 1.6a1.42 1.42 0 0 1-.661.191.99.99 0 0 1-.617-.191c-.185-.135-.309-.339-.344-.566a.81.81 0 0 1 .13-.65 1.3 1.3 0 0 1 .371-.361l.61-.415a2.72 2.72 0 0 0 .728-.683 1.29 1.29 0 0 0 .253-.757.75.75 0 0 0-.332-.651.69.69 0 0 0-.7-.1 2.41 2.41 0 0 0-.506.28q-.216.159-.724.556c-.354.291-.736.548-1.139.767-.317.164-.673.239-1.029.218a2.19 2.19 0 0 1-1.132-.466zm-61.207-35.22c-7.1-3.36-14.008-19.111-19.9-24.3-2.632-2.315-7.176-2.348-10.333-.172-5.357 3.691-1.72 11.961 3.511 16.121 4.171 3.318 6.014 24.6 16.482 39.6M95.173 70.06c7.1-3.36 14.009-19.111 19.9-24.3 2.632-2.314 7.176-2.347 10.333-.171 5.357 3.691 1.72 11.96-3.511 16.12-4.172 3.318-6.014 24.605-16.482 39.6" fill="#fff"/><g fill="#40615f"><circle cx="77.961" cy="122.954" r="2.116"/><circle cx="83.34" cy="122.954" r="2.116"/><circle cx="88.448" cy="121.896" r="2.116"/></g><path d="M83.304 115.985c-.726 2.229-.648 4.641.221 6.818" fill="none" stroke="#40615f" stroke-miterlimit="10" stroke-width=".441"/></svg>